<svg width="18" height="18" viewBox="0 0 18 18" fill="none" xmlns="http://www.w3.org/2000/svg">
<g filter="url(#filter0_ii_14_9256)">
<path d="M9 0.5C4.3056 0.5 0.5 4.3056 0.5 9C0.5 13.6944 4.3056 17.5 9 17.5C13.4176 17.5 17.0476 14.1303 17.4608 9.8207C17.4801 9.6202 17.377 9.4277 17.1995 9.3324C17.0219 9.2372 16.8045 9.2578 16.6481 9.3848C15.7884 10.0824 14.6937 10.5 13.5 10.5C10.7386 10.5 8.5 8.2614 8.5 5.5C8.5 3.8599 9.2892 2.4042 10.5106 1.4917C10.6721 1.371 10.7453 1.1652 10.6963 0.969601C10.6473 0.774101 10.4857 0.6271 10.2864 0.5968C9.8666 0.533 9.437 0.5 9 0.5Z" fill="black"/>
</g>
<defs>
<filter id="filter0_ii_14_9256" x="-0.5" y="0.5" width="18.9631" height="18" filterUnits="userSpaceOnUse" color-interpolation-filters="sRGB">
<feFlood flood-opacity="0" result="BackgroundImageFix"/>
<feBlend mode="normal" in="SourceGraphic" in2="BackgroundImageFix" result="shape"/>
<feColorMatrix in="SourceAlpha" type="matrix" values="0 0 0 0 0 0 0 0 0 0 0 0 0 0 0 0 0 0 127 0" result="hardAlpha"/>
<feOffset dx="-1" dy="1"/>
<feGaussianBlur stdDeviation="1"/>
<feComposite in2="hardAlpha" operator="arithmetic" k2="-1" k3="1"/>
<feColorMatrix type="matrix" values="0 0 0 0 0.156863 0 0 0 0 0.0980392 0 0 0 0 0.0627451 0 0 0 0.3 0"/>
<feBlend mode="normal" in2="shape" result="effect1_innerShadow_14_9256"/>
<feColorMatrix in="SourceAlpha" type="matrix" values="0 0 0 0 0 0 0 0 0 0 0 0 0 0 0 0 0 0 127 0" result="hardAlpha"/>
<feOffset dx="1" dy="1"/>
<feGaussianBlur stdDeviation="0.5"/>
<feComposite in2="hardAlpha" operator="arithmetic" k2="-1" k3="1"/>
<feColorMatrix type="matrix" values="0 0 0 0 0.7 0 0 0 0 0.7 0 0 0 0 0.7 0 0 0 0.25 0"/>
<feBlend mode="normal" in2="effect1_innerShadow_14_9256" result="effect2_innerShadow_14_9256"/>
</filter>
</defs>
</svg>
